<svg xmlns="http://www.w3.org/2000/svg" width="48" height="48" viewBox="0 0 48 48" version="1.1"><path d="" stroke="none" fill="#080404" fill-rule="evenodd"/><path d="M 37.043 20.998 C 31.380 27.635, 25.948 33.493, 24.970 34.016 C 23.497 34.805, 21.312 33.009, 12.154 23.483 C 6.083 17.167, 0.864 12, 0.558 12 C -1.206 12, 0.878 15.221, 7.988 23.486 C 18.804 36.059, 22.572 39.299, 24.917 38.045 C 27.657 36.578, 35.273 28.356, 41.915 19.693 C 45.330 15.239, 48.042 12.514, 48.335 13.241 C 48.685 14.109, 48.862 14.035, 48.906 13 C 49.121 7.934, 46.929 9.411, 37.043 20.998 M 0.079 13.583 C 0.127 14.748, 0.364 14.985, 0.683 14.188 C 0.972 13.466, 0.936 12.603, 0.604 12.271 C 0.272 11.939, 0.036 12.529, 0.079 13.583" stroke="none" fill="#040404" fill-rule="evenodd"/></svg>