<svg xmlns="http://www.w3.org/2000/svg" width="48" height="48" viewBox="0 0 48 48" version="1.1"><path d="" stroke="none" fill="#080404" fill-rule="evenodd"/><path d="M 15.239 1.335 C 6.026 4.676, 0.027 13.913, 0.010 24.782 C -0.007 35.352, 3.647 41.447, 12.500 45.623 C 22.708 50.436, 37.426 47.675, 43.225 39.858 C 47.637 33.909, 49 29.999, 49 23.287 C 49 19.272, 48.627 17.113, 48 17.500 C 47.450 17.840, 47 17.641, 47 17.059 C 47 16.477, 46.593 16, 46.095 16 C 45.597 16, 45.429 18.634, 45.720 21.854 C 46.983 35.772, 38.606 45.026, 24.790 44.978 C 18.387 44.956, 10 42.160, 10 40.049 C 10 39.472, 9.334 39, 8.520 39 C 5.845 39, 2.998 31.641, 3.022 24.790 C 3.061 13.502, 9.073 5.381, 19.186 2.955 C 30 0.361, 39.906 5.092, 43.359 14.500 C 43.561 15.050, 44.073 15.177, 44.498 14.782 C 45.650 13.709, 43.221 8.586, 40.177 5.671 C 38.705 4.260, 35.827 2.407, 33.782 1.553 C 29.454 -0.255, 19.931 -0.367, 15.239 1.335 M 18.898 10.270 C 12.278 14.692, 10.065 24.286, 13.920 31.843 C 16.068 36.055, 19.421 38, 24.531 38 C 30.691 38, 37.788 28.967, 32.247 28.180 C 31.007 28.004, 28.799 28.799, 27.339 29.948 C 25 31.787, 24.437 31.871, 22.593 30.652 C 19.810 28.813, 19.091 20.051, 21.523 17.620 C 23.783 15.360, 27.074 15.568, 27.713 18.011 C 28.403 20.649, 32.692 21.736, 34.657 19.771 C 35.969 18.460, 35.971 17.867, 34.678 14.772 C 31.826 7.947, 25.204 6.057, 18.898 10.270 M 20.763 12.565 C 17.205 14.496, 15 18.871, 15 24 C 15 34.033, 23.063 39.292, 29.694 33.585 C 33.355 30.434, 32.056 29.159, 28.136 32.057 C 25.455 34.040, 24.777 34.150, 22.101 33.042 C 16.544 30.740, 15.394 20.402, 20.135 15.357 C 23.043 12.261, 26.513 12.372, 29.558 15.657 C 32.941 19.307, 33.708 17.994, 30.452 14.126 C 27.561 10.690, 24.984 10.275, 20.763 12.565 M 0.336 25 C 0.336 29.125, 0.513 30.813, 0.728 28.750 C 0.944 26.688, 0.944 23.313, 0.728 21.250 C 0.513 19.188, 0.336 20.875, 0.336 25" stroke="none" fill="#040404" fill-rule="evenodd"/></svg>