<?xml version="1.0" standalone="no"?>
<!DOCTYPE svg PUBLIC "-//W3C//DTD SVG 20010904//EN"
 "http://www.w3.org/TR/2001/REC-SVG-20010904/DTD/svg10.dtd">
<svg version="1.0" xmlns="http://www.w3.org/2000/svg"
 width="48.000000pt" height="48.000000pt" viewBox="0 0 48.000000 48.000000"
 preserveAspectRatio="xMidYMid meet">
<metadata>
Created by potrace 1.10, written by Peter Selinger 2001-2011
</metadata>
<g transform="translate(0.000000,48.000000) scale(0.100000,-0.100000)"
fill="#000000" stroke="none">
<path d="M135 374 c-22 -2 -59 -6 -81 -9 l-41 -6 -7 -94 c-8 -109 -1 -130 52
-152 30 -12 63 -14 184 -8 218 11 243 29 234 169 -3 44 -10 84 -15 89 -10 10
-255 18 -326 11z m323 -105 c5 -126 -18 -137 -265 -138 -123 -1 -135 1 -154
20 -20 20 -21 29 -16 101 4 43 9 83 12 89 4 6 88 8 213 7 l207 -3 3 -76z"/>
<path d="M70 290 c-39 -39 -15 -110 38 -110 29 0 28 18 0 22 -13 2 -24 11 -26
21 -3 13 3 17 23 17 15 0 24 4 20 10 -3 6 -15 10 -26 10 -10 0 -19 4 -19 9 0
11 25 21 52 21 27 0 21 5 -14 14 -21 5 -33 1 -48 -14z"/>
<path d="M160 294 c0 -3 9 -17 20 -31 18 -23 18 -26 3 -49 -20 -31 -8 -45 13
-15 l16 22 15 -20 c22 -32 35 -25 18 10 -15 28 -15 33 -1 54 23 35 20 42 -7
17 l-24 -22 -18 20 c-17 19 -35 26 -35 14z"/>
<path d="M276 266 c-7 -38 1 -86 15 -86 5 0 9 27 9 60 0 66 -14 80 -24 26z"/>
<path d="M321 291 c-12 -8 -9 -11 11 -16 18 -5 25 -12 21 -21 -8 -21 6 -86 18
-79 5 4 9 28 9 56 0 42 3 49 20 49 11 0 20 5 20 10 0 13 -80 13 -99 1z"/>
</g>
</svg>
