<svg xmlns="http://www.w3.org/2000/svg" width="48" height="48" viewBox="0 0 48 48" version="1.1"><path d="" stroke="none" fill="#080404" fill-rule="evenodd"/><path d="M 12.624 11.998 C 6.602 14.350, -0 18.832, -0 20.568 C -0 21.352, 2.006 20.515, 5.072 18.452 C 14.722 11.958, 24.785 10.924, 34.600 15.417 C 40.815 18.263, 45 21.538, 45 23.558 C 45 25.141, 38.010 31.427, 33.865 33.570 C 32.075 34.496, 28.335 35.299, 25.555 35.355 C 16.670 35.533, 13.161 34.265, 7.366 28.784 C 1.302 23.050, -0.143 24.486, 5.669 30.471 C 10.889 35.845, 16.133 37.952, 24.360 37.978 C 30.136 37.997, 32.137 37.511, 37.023 34.907 C 40.215 33.206, 43.803 30.774, 44.998 29.502 C 47.111 27.253, 49.608 19.274, 48.535 18.201 C 48.241 17.907, 48 18.452, 48 19.411 C 48 20.779, 47.099 20.385, 43.829 17.586 C 35.380 10.354, 22.664 8.077, 12.624 11.998 M 18.114 17.750 C 16.955 18.712, 15.727 20.944, 15.386 22.710 C 14.070 29.524, 24.333 34.861, 29.886 30.250 C 32.248 28.289, 33.955 22, 32.125 22 C 31.506 22, 31 21.395, 31 20.655 C 31 16.415, 22.130 14.415, 18.114 17.750 M 20 20 C 17.454 22.546, 17.470 24.470, 20.059 27.059 C 23.037 30.037, 27.971 29.356, 29.969 25.692 C 31.437 22.999, 31.385 22.783, 28.694 20.442 C 25.288 17.477, 22.657 17.343, 20 20 M 0.079 20.583 C 0.127 21.748, 0.364 21.985, 0.683 21.188 C 0.972 20.466, 0.936 19.603, 0.604 19.271 C 0.272 18.939, 0.036 19.529, 0.079 20.583" stroke="none" fill="#040404" fill-rule="evenodd"/></svg>