<svg xmlns="http://www.w3.org/2000/svg" width="48" height="48" viewBox="0 0 48 48" version="1.1"><path d="" stroke="none" fill="#080404" fill-rule="evenodd"/><path d="M 27.154 2.532 C 24.327 6.126, 24.429 9.520, 27.455 12.545 C 31.521 16.612, 38.839 15.218, 41.016 9.961 C 42.975 5.231, 39.971 1.499, 33.354 0.441 C 29.752 -0.135, 29.071 0.094, 27.154 2.532 M 29.229 3.171 C 25.928 6.472, 28.776 12, 33.779 12 C 37.641 12, 40.485 6.441, 37.750 4.238 C 35.569 2.481, 30.548 1.852, 29.229 3.171 M 13.500 16.733 C 7.155 17.651, 4.996 23.188, 10 25.710 C 11.375 26.403, 15.222 26.977, 18.550 26.985 C 21.903 26.993, 25.135 27.535, 25.800 28.200 C 26.561 28.961, 27 32.800, 27 38.700 C 27 43.815, 27.398 48, 27.885 48 C 29.190 48, 30.238 37.770, 29.463 32.599 C 28.538 26.431, 26.403 24.834, 18.059 24.070 C 10.546 23.381, 8.952 22.648, 10.846 20.754 C 11.639 19.961, 16.850 19.409, 25.889 19.161 C 39.268 18.793, 39.788 18.856, 41.859 21.079 C 43.665 23.018, 44 24.589, 44 31.130 C 44 35.393, 43.573 39.146, 43.050 39.469 C 41.468 40.447, 40 36.429, 40 31.125 C 40 26.615, 38.791 23.746, 37.729 25.734 C 37.256 26.618, 38.478 37.651, 39.686 43.418 C 40.654 48.035, 43 49.503, 43 45.491 C 43 44.019, 43.900 41.671, 45 40.273 C 46.562 38.287, 47 36.216, 47 30.815 C 47 22.896, 45.179 18.399, 41.387 16.957 C 38.932 16.024, 19.486 15.868, 13.500 16.733 M 1.994 26.507 C 0.887 27.841, 0.931 28.359, 2.258 29.687 C 4.403 31.831, 7.230 30.640, 6.820 27.765 C 6.429 25.026, 3.793 24.339, 1.994 26.507 M 4 27.500 C 4 27.775, 4.225 28, 4.500 28 C 4.775 28, 5 27.775, 5 27.500 C 5 27.225, 4.775 27, 4.500 27 C 4.225 27, 4 27.225, 4 27.500 M 1.347 33.538 C 0.614 35.449, 1.626 42.085, 3.167 45.467 C 4.168 47.663, 4.956 48, 9.101 48 C 14.547 48, 14.878 47.652, 16.631 40.112 C 18.337 32.776, 17.592 32, 8.846 32 C 3.551 32, 1.799 32.359, 1.347 33.538 M 3 34.326 C 3 34.642, 3.479 37.137, 4.065 39.869 C 5.205 45.185, 6.190 46.069, 10.133 45.315 C 12.217 44.917, 12.808 44.008, 13.646 39.918 L 14.654 35 11.952 35 C 10.466 35, 7.844 34.719, 6.125 34.375 C 4.406 34.031, 3 34.009, 3 34.326" stroke="none" fill="#040404" fill-rule="evenodd"/></svg>