<svg xmlns="http://www.w3.org/2000/svg" width="48" height="48" viewBox="0 0 48 48" version="1.1"><path d="" stroke="none" fill="#080404" fill-rule="evenodd"/><path d="M 31.487 5.373 C 23.751 10.605, 22.476 12.446, 22.652 18.131 C 22.791 22.634, 22.515 23.268, 19.375 25.663 C 17.489 27.102, 15.676 28.009, 15.346 27.679 C 14.525 26.858, 9.897 29.351, 7.667 31.815 C 5.493 34.218, 5.805 38.347, 8.196 38.803 C 10.134 39.172, 17.868 32.534, 16.774 31.440 C 16.378 31.045, 14.467 31.932, 12.527 33.411 C 10.587 34.891, 9 35.669, 9 35.140 C 9 33.558, 14.952 29.044, 16.337 29.576 C 17.043 29.847, 19.294 28.932, 21.340 27.544 C 24.343 25.506, 25.408 25.238, 26.870 26.151 C 30.527 28.435, 35.899 26.261, 42.222 19.938 C 46.955 15.205, 48.072 13.489, 47.818 11.340 C 47.643 9.863, 46.918 8.463, 46.206 8.229 C 45.263 7.919, 45.094 8.525, 45.581 10.466 C 46.154 12.751, 45.527 13.823, 41.156 18.037 C 35.997 23.010, 32.343 24.729, 29.366 23.587 C 27.863 23.010, 27.871 22.801, 29.458 21.047 C 30.409 19.995, 31.708 19.330, 32.344 19.569 C 34.258 20.289, 39.793 16.300, 41.524 12.954 C 44.726 6.761, 40.513 4.986, 33.744 9.677 C 29.498 12.620, 27.540 15.447, 28.582 17.132 C 29.326 18.337, 27.065 20.158, 25.798 19.375 C 22.751 17.492, 28.916 9.163, 36.109 5.443 C 38.893 4.004, 39.367 4.010, 41.663 5.515 C 44.905 7.639, 45.768 6.768, 43.083 4.083 C 40.156 1.156, 37.242 1.480, 31.487 5.373 M 35.359 11.923 C 31.587 14.223, 30.447 15.847, 31.716 17.116 C 32.801 18.201, 37.442 14.911, 39.042 11.922 C 40.340 9.495, 39.340 9.496, 35.359 11.923 M 8.309 24.478 C 2.228 28.573, 0 31.437, 0 35.157 C -0 42.091, 4.528 46.702, 10.129 45.472 C 14.294 44.557, 26 33.298, 26 30.207 C 26 28.933, 25.379 28, 24.531 28 C 23.649 28, 23.288 28.588, 23.627 29.471 C 24.335 31.315, 15.447 40.158, 11.062 41.974 C 8.191 43.163, 7.706 43.073, 5.414 40.919 C 3.496 39.118, 2.975 37.742, 3.203 35.083 C 3.444 32.254, 4.489 30.798, 8.787 27.301 C 12.365 24.391, 15.033 23, 17.037 23 C 18.667 23, 20 22.550, 20 22 C 20 19.693, 13.307 21.112, 8.309 24.478" stroke="none" fill="#040404" fill-rule="evenodd"/></svg>