<svg xmlns="http://www.w3.org/2000/svg" width="48" height="48" viewBox="0 0 48 48" version="1.1"><path d="" stroke="none" fill="#080404" fill-rule="evenodd"/><path d="M 10.200 21.200 C 8.198 23.202, 8.849 25.974, 11.617 27.235 C 13.925 28.287, 14.456 28.155, 16.103 26.121 C 17.528 24.361, 17.729 23.362, 16.950 21.907 C 15.805 19.768, 12.028 19.372, 10.200 21.200 M 21.040 21.452 C 19.415 23.410, 20.611 26.742, 23.239 27.576 C 26.205 28.517, 29.419 24.651, 27.950 21.907 C 26.744 19.653, 22.751 19.390, 21.040 21.452 M 32.972 21.533 C 31.040 23.862, 32.972 26.500, 36.609 26.500 C 39.155 26.500, 39.500 26.142, 39.500 23.500 C 39.500 21.018, 39.054 20.448, 36.914 20.199 C 35.430 20.027, 33.751 20.595, 32.972 21.533" stroke="none" fill="#040404" fill-rule="evenodd"/></svg>