<svg xmlns="http://www.w3.org/2000/svg" width="48" height="48" viewBox="0 0 48 48" version="1.1"><path d="" stroke="none" fill="#080404" fill-rule="evenodd"/><path d="M 10.459 1.880 C 5.394 4.180, 1.281 8.986, 0.412 13.618 C -0.641 19.231, 0.501 30.309, 2.437 33.263 C 5.070 37.282, 13.395 41.020, 19.446 40.900 C 22.226 40.845, 25.625 40.476, 27 40.079 C 29.023 39.495, 30.333 40.082, 33.864 43.155 C 42.948 51.060, 51.327 48.335, 46.520 39.039 C 45.706 37.465, 43.816 35.214, 42.320 34.037 C 39.687 31.966, 39.608 31.619, 39.873 23.199 C 40.023 18.405, 39.636 13.153, 39.009 11.500 C 37.639 7.884, 33.491 3.339, 29.800 1.411 C 25.932 -0.610, 15.376 -0.354, 10.459 1.880 M 15.138 3.077 C 0.434 5.967, -2.051 22.700, 11.200 29.595 C 18.110 33.190, 32.235 29.313, 35.545 22.913 C 37.573 18.992, 37.005 12.853, 34.265 9.087 C 32.090 6.098, 24.523 1.949, 21.538 2.110 C 20.417 2.170, 17.537 2.605, 15.138 3.077 M 12.900 7.134 C 5.549 11.397, 3.948 18.594, 9.057 24.413 C 16.736 33.158, 33.981 27.825, 33.996 16.700 C 34.009 7.189, 22.109 1.793, 12.900 7.134 M 13.314 9.950 C 10.542 11.640, 8 14.728, 8 16.404 C 8 16.699, 9.638 15.828, 11.640 14.470 C 16.438 11.213, 24.487 11.022, 28.365 14.073 C 32.278 17.151, 31.867 13.907, 27.923 10.589 C 24.112 7.382, 17.967 7.113, 13.314 9.950 M 13.775 16.559 C 11.393 17.851, 9 20.783, 9 22.409 C 9 23.743, 15.284 26, 19 26 C 25.244 26, 30 22.949, 30 18.944 C 30 17.339, 24.185 14.999, 20.300 15.040 C 18.210 15.062, 15.274 15.746, 13.775 16.559 M 3 27.320 C 3 29.639, 7.559 34.563, 11.390 36.381 C 15.983 38.560, 28 38.647, 28 36.500 C 28 34.161, 31.736 31, 34.500 31 C 35.875 31, 37 30.587, 37 30.082 C 37 29.577, 37.286 28.418, 37.636 27.507 C 38.070 26.375, 36.883 26.826, 33.886 28.932 C 24.770 35.337, 13.834 35.305, 6.483 28.851 C 4.029 26.696, 3 26.244, 3 27.320 M 31.479 34.392 C 29.787 35.629, 29.738 35.981, 31.038 37.559 C 35.380 42.830, 45 47.177, 45 43.868 C 45 41.599, 40.734 35.914, 37.953 34.476 C 34.433 32.655, 33.864 32.648, 31.479 34.392" stroke="none" fill="#040404" fill-rule="evenodd"/></svg>