<svg xmlns="http://www.w3.org/2000/svg" width="48" height="48" viewBox="0 0 48 48" version="1.1"><path d="M 17.290 7.532 C 14.244 11.766, 11.695 14.264, 10.045 14.633 C -1.775 17.270, -2.385 18.266, 4 24.500 C 8.527 28.921, 8.656 29.709, 6.300 38.552 C 5.365 42.062, 4.868 45.201, 5.196 45.530 C 5.525 45.858, 9.537 44.244, 14.114 41.943 L 22.435 37.759 31.255 42.472 C 36.106 45.064, 40.734 46.932, 41.538 46.624 C 43.539 45.856, 43.372 42.393, 41 35.500 C 39.900 32.303, 39 29.125, 39 28.437 C 39 27.750, 41.279 25.551, 44.064 23.550 C 47.911 20.786, 49.052 19.382, 48.814 17.706 C 48.551 15.859, 47.604 15.366, 43 14.680 C 33.661 13.287, 33.080 13.055, 31.555 10.105 C 29.349 5.841, 25.017 1, 23.406 1 C 22.627 1, 19.874 3.940, 17.290 7.532 M 0.158 19 C 0.158 20.375, 0.385 20.938, 0.662 20.250 C 0.940 19.563, 0.940 18.438, 0.662 17.750 C 0.385 17.063, 0.158 17.625, 0.158 19" stroke="none" fill="#fff404" fill-rule="evenodd"/><path d="" stroke="none" fill="#fcf404" fill-rule="evenodd"/></svg>