<svg xmlns="http://www.w3.org/2000/svg" width="48" height="48" viewBox="0 0 48 48" version="1.1"><path d="M 19.874 4.250 C 18.630 6.038, 16.461 9.052, 15.056 10.950 C 13.650 12.847, 12.999 14.097, 13.609 13.728 C 14.219 13.359, 16.431 10.569, 18.525 7.528 C 20.619 4.488, 22.785 2, 23.337 2 C 23.890 2, 25.278 2.788, 26.421 3.750 C 28.498 5.498, 28.498 5.498, 26.595 3.250 C 24.011 0.198, 22.543 0.416, 19.874 4.250 M 28.618 7 C 30.031 9.986, 33.157 14, 34.068 14 C 34.581 14, 34.212 13.203, 33.250 12.228 C 32.288 11.254, 30.692 9.341, 29.704 7.978 C 28.716 6.615, 28.227 6.175, 28.618 7 M 11 14.500 C 11 14.775, 11.225 15, 11.500 15 C 11.775 15, 12 14.775, 12 14.500 C 12 14.225, 11.775 14, 11.500 14 C 11.225 14, 11 14.225, 11 14.500 M 38.250 14.689 C 39.212 14.941, 40.788 14.941, 41.750 14.689 C 42.712 14.438, 41.925 14.232, 40 14.232 C 38.075 14.232, 37.288 14.438, 38.250 14.689 M 6.750 15.662 C 7.438 15.940, 8.563 15.940, 9.250 15.662 C 9.938 15.385, 9.375 15.158, 8 15.158 C 6.625 15.158, 6.063 15.385, 6.750 15.662 M 46.250 15.631 C 49.355 16.546, 48.122 19.496, 43 23.402 C 40.250 25.499, 38.052 27.954, 38.116 28.858 C 38.217 30.290, 38.286 30.299, 38.656 28.925 C 38.889 28.059, 41.334 25.631, 44.090 23.529 C 49.418 19.466, 50.516 15.725, 46.500 15.318 C 44.942 15.160, 44.887 15.229, 46.250 15.631 M 2.812 16.683 C 3.534 16.972, 4.397 16.936, 4.729 16.604 C 5.061 16.272, 4.471 16.036, 3.417 16.079 C 2.252 16.127, 2.015 16.364, 2.812 16.683 M 4.169 24.500 C 6.186 26.700, 8.038 29.625, 8.282 31 L 8.728 33.500 8.864 30.953 C 8.961 29.143, 7.770 27.262, 4.750 24.453 L 0.500 20.500 4.169 24.500 M 39 32 C 39 32.733, 39.300 33.033, 39.667 32.667 C 40.033 32.300, 40.033 31.700, 39.667 31.333 C 39.300 30.967, 39 31.267, 39 32 M 7.079 35.583 C 7.127 36.748, 7.364 36.985, 7.683 36.188 C 7.972 35.466, 7.936 34.603, 7.604 34.271 C 7.272 33.939, 7.036 34.529, 7.079 35.583 M 40 35 C 40 35.733, 40.300 36.033, 40.667 35.667 C 41.033 35.300, 41.033 34.700, 40.667 34.333 C 40.300 33.967, 40 34.267, 40 35 M 19.441 38.516 C 17.628 39.932, 17.674 39.958, 20.136 38.908 C 22.392 37.945, 23.439 38.173, 27.386 40.486 C 29.924 41.973, 32 42.965, 32 42.690 C 32 42.029, 23.395 37, 22.263 37 C 21.779 37, 20.509 37.682, 19.441 38.516 M 41 38 C 41 38.733, 41.300 39.033, 41.667 38.667 C 42.033 38.300, 42.033 37.700, 41.667 37.333 C 41.300 36.967, 41 37.267, 41 38 M 6 39 C 6 39.733, 6.300 40.033, 6.667 39.667 C 7.033 39.300, 7.033 38.700, 6.667 38.333 C 6.300 37.967, 6 38.267, 6 39 M 16 40.500 C 16 40.775, 16.225 41, 16.500 41 C 16.775 41, 17 40.775, 17 40.500 C 17 40.225, 16.775 40, 16.500 40 C 16.225 40, 16 40.225, 16 40.500 M 42.136 42.677 C 42.046 44.785, 41.412 46.007, 40.250 46.311 C 38.610 46.739, 38.612 46.775, 40.281 46.884 C 42.385 47.021, 43.331 45.054, 42.715 41.823 C 42.370 40.013, 42.242 40.202, 42.136 42.677 M 5 43.500 C 5 44.875, 5.388 46, 5.861 46 C 6.335 46, 6.508 44.875, 6.245 43.500 C 5.982 42.125, 5.594 41, 5.383 41 C 5.173 41, 5 42.125, 5 43.500 M 14 41.500 C 14 41.775, 14.225 42, 14.500 42 C 14.775 42, 15 41.775, 15 41.500 C 15 41.225, 14.775 41, 14.500 41 C 14.225 41, 14 41.225, 14 41.500 M 10 43.500 C 8.625 44.286, 7.976 44.945, 8.559 44.965 C 9.141 44.984, 10.491 44.339, 11.559 43.532 C 14.028 41.664, 13.239 41.648, 10 43.500 M 33 43.500 C 33 43.775, 33.225 44, 33.500 44 C 33.775 44, 34 43.775, 34 43.500 C 34 43.225, 33.775 43, 33.500 43 C 33.225 43, 33 43.225, 33 43.500 M 35.733 45.124 C 36.412 45.808, 37.219 46.115, 37.526 45.807 C 37.834 45.499, 37.279 44.940, 36.293 44.564 C 34.868 44.022, 34.753 44.136, 35.733 45.124" stroke="none" fill="#fce404" fill-rule="evenodd"/><path d="M 18.530 7.521 C 14.318 13.636, 11.705 15.397, 5.250 16.470 C -0.237 17.381, -0.248 19.153, 5.202 24.706 L 9.404 28.987 7.535 36.493 C 6.507 40.621, 5.924 44.257, 6.240 44.573 C 6.556 44.889, 8.149 44.457, 9.780 43.614 C 11.412 42.770, 13.028 42.362, 13.373 42.707 C 13.718 43.051, 14 42.911, 14 42.396 C 14 41.880, 15.969 40.382, 18.377 39.067 L 22.753 36.677 28.127 39.969 C 31.082 41.780, 33.725 43.541, 34 43.881 C 34.505 44.506, 35.649 44.879, 39.750 45.753 C 41.685 46.166, 42 45.818, 42 43.273 C 42 41.645, 41.100 37.697, 40 34.500 C 38.900 31.303, 38 28.356, 38 27.951 C 38 27.546, 40.250 25.499, 43 23.402 C 50.836 17.427, 50.066 16.126, 37.736 14.501 C 33.290 13.915, 32.719 13.493, 29.214 8.196 C 27.148 5.074, 24.766 2.386, 23.920 2.223 C 22.995 2.045, 20.849 4.154, 18.530 7.521" stroke="none" fill="#fcf404" fill-rule="evenodd"/></svg>