<?xml version="1.0" standalone="no"?>
<!DOCTYPE svg PUBLIC "-//W3C//DTD SVG 20010904//EN"
 "http://www.w3.org/TR/2001/REC-SVG-20010904/DTD/svg10.dtd">
<svg version="1.0" xmlns="http://www.w3.org/2000/svg"
 width="48.000000pt" height="48.000000pt" viewBox="0 0 48.000000 48.000000"
 preserveAspectRatio="xMidYMid meet">
<metadata>
Created by potrace 1.10, written by Peter Selinger 2001-2011
</metadata>
<g transform="translate(0.000000,48.000000) scale(0.100000,-0.100000)"
fill="#000000" stroke="none">
<path d="M197 428 c-45 -64 -38 -78 11 -20 l35 43 39 -38 c21 -20 38 -32 38
-27 0 13 -69 94 -79 94 -5 0 -24 -23 -44 -52z"/>
<path d="M237 401 c-10 -48 -9 -149 2 -156 14 -8 25 101 14 148 l-9 42 -7 -34z"/>
<path d="M40 143 c-38 -13 -54 -81 -27 -115 18 -23 104 -29 283 -22 176 8 184
11 184 78 0 42 -13 66 -37 66 -20 0 -16 -17 5 -22 16 -5 18 -12 13 -49 l-6
-44 -207 -3 c-202 -2 -207 -2 -218 19 -7 11 -9 31 -6 44 7 28 54 35 249 35 84
0 137 4 137 10 0 10 -342 13 -370 3z"/>
</g>
</svg>
