<svg xmlns="http://www.w3.org/2000/svg" width="48" height="48" viewBox="0 0 48 48" version="1.1"><path d="" stroke="none" fill="#1d073a" fill-rule="evenodd"/><path d="M 5.329 4.419 C -0.517 7.033, -2.026 14.748, 2.479 18.981 C 4.783 21.145, 4.836 21.399, 3.229 22.577 C 1.814 23.613, 1.526 25.313, 1.641 31.938 C 1.719 36.390, 2.297 40.652, 2.925 41.410 C 4.835 43.711, 16.099 45.288, 25.003 44.500 C 32.919 43.799, 36 42.413, 36 39.554 C 36 38.602, 37.113 38.801, 40.125 40.292 C 46.332 43.363, 47.500 42.129, 47.500 32.500 C 47.500 22.742, 46.092 21.276, 40.046 24.741 L 36.137 26.981 35.818 24.766 C 35.643 23.547, 34.536 22.072, 33.358 21.487 C 31.456 20.542, 31.372 20.211, 32.613 18.514 C 34.287 16.225, 33.568 13.141, 30.802 10.750 C 28.151 8.457, 24.473 8.527, 22.086 10.914 C 20.200 12.800, 20.154 12.786, 18.994 9.987 C 16.566 4.124, 11.030 1.869, 5.329 4.419 M 6.017 7.286 C -0.482 10.574, 2.054 19.619, 9.410 19.384 C 17.509 19.125, 19.889 11.062, 12.928 7.463 C 9.515 5.698, 9.173 5.689, 6.017 7.286 M 23.571 13.571 C 22.707 14.436, 22 15.529, 22 16 C 22 17.539, 25.099 20, 27.036 20 C 28.625 20, 31 17.386, 31 15.637 C 31 14.592, 27.793 12, 26.500 12 C 25.754 12, 24.436 12.707, 23.571 13.571 M 18.204 18.045 C 17.109 19.799, 17.254 20, 19.614 20 C 21.963 20, 22.101 19.813, 20.905 18.250 C 20.169 17.288, 19.534 16.408, 19.495 16.295 C 19.456 16.183, 18.875 16.970, 18.204 18.045 M 5.250 23.662 C 3.253 24.468, 3.567 38.395, 5.620 40.100 C 7.377 41.558, 27.987 42.100, 31.250 40.774 C 33.716 39.772, 33.865 24.546, 31.418 23.607 C 29.541 22.887, 7.055 22.934, 5.250 23.662 M 13.500 25.491 C 12.950 25.675, 11.262 26.098, 9.750 26.432 C 7.312 26.969, 7 27.490, 7 31.019 C 7 36.977, 9.373 38.856, 16.116 38.240 C 19.077 37.969, 22.110 37.259, 22.856 36.663 C 24.570 35.293, 23.814 27.130, 21.859 25.892 C 20.540 25.056, 15.525 24.816, 13.500 25.491 M 39.250 27.989 C 34.560 30.848, 34.687 35.003, 39.534 37.315 C 41.478 38.242, 43.503 39, 44.034 39 C 44.565 39, 45 36.075, 45 32.500 C 45 25.245, 44.454 24.816, 39.250 27.989 M 9.468 31.696 C 9.859 33.788, 10.277 35.601, 10.398 35.726 C 10.519 35.850, 12.977 35.672, 15.861 35.330 C 21.013 34.720, 21.100 34.655, 20.803 31.604 C 20.506 28.559, 20.389 28.494, 14.629 28.196 L 8.757 27.893 9.468 31.696 M 26.750 28.689 C 23.708 29.484, 24.856 31, 28.500 31 C 32.122 31, 33.188 29.670, 30.418 28.607 C 29.548 28.273, 28.761 28.052, 28.668 28.116 C 28.576 28.180, 27.712 28.438, 26.750 28.689 M 25.740 32.594 C 24.476 33.858, 26.091 35, 29.142 35 C 31.114 35, 32.024 34.565, 31.756 33.750 C 31.303 32.370, 26.824 31.509, 25.740 32.594" stroke="none" fill="#1d073a" fill-rule="evenodd"/></svg>